<svg width="16" height="16" viewBox="0 0 16 16" fill="none" xmlns="http://www.w3.org/2000/svg">
<path fill-rule="evenodd" clip-rule="evenodd" d="M3.63753 6.17185C3.44267 6.36751 3.44333 6.6841 3.63899 6.87895C3.83466 7.07381 4.15124 7.07315 4.3461 6.87749L7.5133 3.69712L7.5133 12.9799C7.5133 13.256 7.73715 13.4799 8.0133 13.4799C8.28944 13.4799 8.5133 13.256 8.5133 12.9799L8.5133 3.7242L11.6535 6.87749C11.8484 7.07315 12.165 7.07381 12.3606 6.87895C12.5563 6.6841 12.557 6.36751 12.3621 6.17185L8.3541 2.14718C8.26027 2.05296 8.13278 2 7.99981 2C7.86684 2 7.73935 2.05296 7.64553 2.14718L3.63753 6.17185Z" fill="#282828"/>
</svg>
