<svg width="16" height="16" viewBox="0 0 16 16" fill="none" xmlns="http://www.w3.org/2000/svg">
<path fill-rule="evenodd" clip-rule="evenodd" d="M12.3623 9.34138C12.5572 9.14572 12.5565 8.82914 12.3608 8.63428C12.1652 8.43942 11.8486 8.44008 11.6537 8.63575L8.5134 11.7891L8.5134 2.98657C8.5134 2.71043 8.28954 2.48657 8.0134 2.48657C7.73725 2.48657 7.5134 2.71043 7.5134 2.98657L7.5134 11.816L4.34631 8.63575C4.15146 8.44008 3.83487 8.43942 3.63921 8.63428C3.44354 8.82914 3.44288 9.14572 3.63774 9.34138L7.64574 13.3661C7.73957 13.4603 7.86706 13.5132 8.00003 13.5132C8.13299 13.5132 8.26049 13.4603 8.35431 13.3661L12.3623 9.34138Z" fill="#282828"/>
</svg>
