<svg width="16" height="17" viewBox="0 0 16 17" fill="none" xmlns="http://www.w3.org/2000/svg">
<rect y="0.5" width="16" height="16" rx="8" fill="#2C74D6"/>
<mask id="mask0_1108_36006" style="mask-type:alpha" maskUnits="userSpaceOnUse" x="2" y="2" width="12" height="13">
<rect x="2" y="2.5" width="12" height="12" fill="#D9D9D9"/>
</mask>
<g mask="url(#mask0_1108_36006)">
<mask id="mask1_1108_36006" style="mask-type:alpha" maskUnits="userSpaceOnUse" x="2" y="2" width="13" height="13">
<rect x="2.14258" y="2.75635" width="12" height="12" fill="#D9D9D9"/>
</mask>
<g mask="url(#mask1_1108_36006)">
<path d="M4.79643 13.0063C4.54707 13.0063 4.33409 12.918 4.15749 12.7414C3.98088 12.5648 3.89258 12.3518 3.89258 12.1025V7.25634C3.89258 6.49352 4.16021 5.84449 4.69547 5.30924C5.23072 4.77398 5.87975 4.50635 6.64257 4.50635H9.64257C10.4054 4.50635 11.0544 4.77398 11.5897 5.30924C12.1249 5.84449 12.3926 6.49352 12.3926 7.25634V12.1025C12.3926 12.3518 12.3042 12.5648 12.1276 12.7414C11.951 12.918 11.7381 13.0063 11.4887 13.0063H4.79643ZM4.79643 12.2563H11.4887C11.5336 12.2563 11.5704 12.2419 11.5993 12.2131C11.6281 12.1842 11.6426 12.1473 11.6426 12.1025V7.25634C11.6426 6.70634 11.4467 6.2355 11.0551 5.84384C10.6634 5.45217 10.1926 5.25634 9.64257 5.25634H6.64257C6.09257 5.25634 5.62173 5.45217 5.23007 5.84384C4.8384 6.2355 4.64257 6.70634 4.64257 7.25634V12.1025C4.64257 12.1473 4.65699 12.1842 4.68584 12.2131C4.71469 12.2419 4.75155 12.2563 4.79643 12.2563ZM6.64257 8.63132C6.39962 8.63132 6.19305 8.54623 6.02287 8.37604C5.85267 8.20585 5.76758 7.99929 5.76758 7.75634C5.76758 7.51339 5.85267 7.30682 6.02287 7.13664C6.19305 6.96644 6.39962 6.88135 6.64257 6.88135C6.88552 6.88135 7.09208 6.96644 7.26227 7.13664C7.43246 7.30682 7.51755 7.51339 7.51755 7.75634C7.51755 7.99929 7.43246 8.20585 7.26227 8.37604C7.09208 8.54623 6.88552 8.63132 6.64257 8.63132ZM9.64257 8.63132C9.39962 8.63132 9.19305 8.54623 9.02287 8.37604C8.85267 8.20585 8.76758 7.99929 8.76758 7.75634C8.76758 7.51339 8.85267 7.30682 9.02287 7.13664C9.19305 6.96644 9.39962 6.88135 9.64257 6.88135C9.88552 6.88135 10.0921 6.96644 10.2623 7.13664C10.4325 7.30682 10.5176 7.51339 10.5176 7.75634C10.5176 7.99929 10.4325 8.20585 10.2623 8.37604C10.0921 8.54623 9.88552 8.63132 9.64257 8.63132ZM5.76758 12.2563V11.2852C5.76758 11.0358 5.85588 10.8228 6.03248 10.6462C6.20908 10.4696 6.42206 10.3813 6.67142 10.3813H9.61372C9.86307 10.3813 10.0761 10.4696 10.2527 10.6462C10.4293 10.8228 10.5176 11.0358 10.5176 11.2852V12.2563H9.76758V11.2852C9.76758 11.2403 9.75315 11.2034 9.7243 11.1746C9.69545 11.1457 9.65859 11.1313 9.61372 11.1313H8.51755V12.2563H7.76758V11.1313H6.67142C6.62654 11.1313 6.58968 11.1457 6.56083 11.1746C6.53198 11.2034 6.51755 11.2403 6.51755 11.2852V12.2563H5.76758ZM4.79643 12.2563H11.6426H4.64257H4.79643Z" fill="white"/>
</g>
</g>
</svg>
