<svg width="40" height="40" viewBox="0 0 40 40" fill="none" xmlns="http://www.w3.org/2000/svg">
<path d="M28.25 13.25H11.75" stroke="#505357" stroke-width="1.2" stroke-linecap="round" stroke-linejoin="round"/>
<path d="M17.75 17.75V23.75" stroke="#505357" stroke-width="1.2" stroke-linecap="round" stroke-linejoin="round"/>
<path d="M22.25 17.75V23.75" stroke="#505357" stroke-width="1.2" stroke-linecap="round" stroke-linejoin="round"/>
<path d="M26.75 13.25V27.5C26.75 27.6989 26.671 27.8897 26.5303 28.0303C26.3897 28.171 26.1989 28.25 26 28.25H14C13.8011 28.25 13.6103 28.171 13.4697 28.0303C13.329 27.8897 13.25 27.6989 13.25 27.5V13.25" stroke="#505357" stroke-width="1.2" stroke-linecap="round" stroke-linejoin="round"/>
<path d="M23.75 13.25V11.75C23.75 11.3522 23.592 10.9706 23.3107 10.6893C23.0294 10.408 22.6478 10.25 22.25 10.25H17.75C17.3522 10.25 16.9706 10.408 16.6893 10.6893C16.408 10.9706 16.25 11.3522 16.25 11.75V13.25" stroke="#505357" stroke-width="1.2" stroke-linecap="round" stroke-linejoin="round"/>
</svg>
