<svg width="80" height="32" viewBox="0 0 80 32" fill="none" xmlns="http://www.w3.org/2000/svg">
<path d="M13.8194 22.2946C14.1442 22.0917 14.5802 22.1923 14.7626 22.5432L15.5151 23.9878L13.8186 22.2946H13.8194ZM13.8194 22.2946C13.7581 22.333 13.6943 22.369 13.6297 22.4017L13.6035 22.414C13.4816 22.4713 13.3523 22.5236 13.2198 22.5645H13.2182C12.9335 22.6569 12.6374 22.7109 12.3757 22.7109C12.0436 22.7109 11.7679 22.6291 11.5593 22.477C11.2599 22.2594 11.0587 21.8676 11.0587 21.2508V16.6111C11.0587 16.4557 11.1838 16.3314 11.3384 16.3314H13.6239C13.9937 16.3314 14.2922 16.032 14.2922 15.6623V14.1302C14.2922 13.7612 13.9928 13.461 13.6239 13.461H11.363C11.2092 13.461 11.084 13.3359 11.084 13.1813V6.9367C11.084 6.56778 10.7847 6.26758 10.4157 6.26758H8.48364C8.1139 6.26758 7.81533 6.56696 7.81533 6.9367V13.1805C7.81533 13.3359 7.69018 13.4602 7.5364 13.4602H6.31186C5.94212 13.4602 5.64355 13.7596 5.64355 14.1293V15.6614C5.64355 16.0304 5.94294 16.3306 6.31186 16.3306H7.5364C7.69018 16.3306 7.81533 16.4557 7.81533 16.6103V21.25C7.81533 22.1326 7.96421 22.8933 8.24642 23.5257C8.92617 25.0455 10.3568 25.7678 12.1932 25.6999C12.8337 25.6819 13.381 25.6025 13.9536 25.4308C14.4174 25.3032 14.8558 25.1158 15.2599 24.877C15.5667 24.697 15.6828 24.3068 15.5168 23.9878L13.8202 22.2946H13.8194Z" fill="#2196F3"/>
<path d="M45.4399 25.1232V14.0852C45.4399 13.7653 45.6992 13.5052 46.0199 13.5052H47.9831C48.3029 13.5052 48.5622 13.7645 48.5622 14.0852V17.3629L48.195 16.2349C48.6146 15.2901 49.2747 14.5735 50.1761 14.0835C50.995 13.6385 51.9978 13.3956 53.1864 13.3547C53.3835 13.3481 53.5479 13.5052 53.5479 13.7023V16.0508C53.5479 16.2627 53.3753 16.4222 53.1651 16.4066H53.1545C53.0318 16.3976 52.9091 16.3927 52.7872 16.3927C51.5446 16.3927 50.5565 16.7559 49.8228 17.4815C49.0882 18.2079 48.7209 19.2876 48.7209 20.7224V25.124C48.7209 25.4439 48.4616 25.704 48.141 25.704H46.0199C45.7001 25.704 45.4408 25.4447 45.4408 25.124L45.4399 25.1232Z" fill="#2196F3"/>
<path d="M38.3004 25.696C36.9507 25.696 35.763 25.4317 34.7356 24.9041C33.7237 24.3757 32.9385 23.6575 32.3814 22.7479C31.8243 21.8236 31.5454 20.7749 31.5454 19.6019C31.5454 18.4289 31.817 17.3647 32.3593 16.4559C32.9164 15.5315 33.6722 14.8125 34.6252 14.2996C35.5789 13.7712 36.6562 13.5078 37.8595 13.5078C39.0628 13.5078 40.0599 13.7573 40.9843 14.2563C41.9233 14.7405 42.6636 15.4448 43.2068 16.3683C43.7499 17.278 44.0207 18.3708 44.0207 19.6469C44.0207 19.7786 44.0133 19.9324 43.9986 20.109C43.9749 20.3716 43.754 20.5712 43.4906 20.5712H35.1986C34.7241 20.5712 34.3389 20.1859 34.3389 19.7115V19.4285C34.3389 18.954 34.7241 18.5688 35.1986 18.5688H41.0636C41.3147 18.5688 41.3884 18.9115 41.1593 19.0146C41.0047 19.0841 40.8297 18.9712 40.8149 18.8019C40.7749 18.3348 40.6554 17.9193 40.4558 17.5561C40.2064 17.1013 39.862 16.7495 39.4219 16.5C38.9818 16.2358 38.4681 16.1041 37.8816 16.1041C37.2951 16.1041 36.774 16.2358 36.3192 16.5C35.8792 16.7495 35.5348 17.1086 35.2853 17.5782C35.0358 18.033 34.9115 18.5753 34.9115 19.2068V19.7352C34.9115 20.3806 35.0513 20.9524 35.3295 21.4514C35.6231 21.9356 36.0264 22.3094 36.5393 22.5737C37.0677 22.8231 37.6837 22.9475 38.3879 22.9475C39.0186 22.9475 39.5683 22.8526 40.0378 22.662C40.2571 22.5753 40.4665 22.4698 40.6677 22.3446C41.0767 22.0894 41.6264 22.0951 41.9528 22.4493L42.6587 23.215C42.9573 23.5389 42.9671 24.042 42.6301 24.325C42.1982 24.6874 41.7008 24.9835 41.138 25.215C40.3168 25.5381 39.3704 25.6992 38.2996 25.6992L38.3004 25.696Z" fill="#2196F3"/>
<path d="M61.1795 16.5272C61.1795 15.9603 60.9578 13.4531 58.0065 13.4531C56.5194 13.4531 54.9341 14.4445 54.9341 16.5272C54.9341 18.213 55.9729 19.184 57.159 19.4924C57.3979 19.5562 57.6425 19.5905 57.887 19.5987C57.887 19.5995 57.8862 19.602 57.8862 19.6036C57.5279 21.2396 56.7934 23.1161 55.3684 25.3582C55.2752 25.5047 55.3807 25.6969 55.5549 25.6969H58.0245C58.0956 25.6969 58.1643 25.6625 58.2052 25.6036C60.5234 22.3578 61.1795 18.4053 61.1795 16.5272Z" fill="#2196F3"/>
<path d="M58.0572 6.26562C56.5071 6.26562 55.2515 7.52207 55.2515 9.07135C55.2515 10.6206 56.5071 11.8771 58.0572 11.8771C59.6073 11.8771 60.8629 10.6215 60.8629 9.07135C60.8629 7.52125 59.6073 6.26562 58.0572 6.26562Z" fill="#2196F3"/>
<path d="M73.9815 25.703H71.4661C71.3369 25.703 71.215 25.6416 71.1381 25.5378L68.4682 21.9435L65.7982 25.5378C65.7213 25.6416 65.5995 25.703 65.4702 25.703H62.9549C62.6187 25.703 62.4265 25.3202 62.6269 25.0502L66.7021 19.5648L62.6858 14.1586C62.4854 13.8887 62.6776 13.5059 63.0138 13.5059H65.5291C65.6584 13.5059 65.7802 13.5672 65.8571 13.6711L68.4682 17.186L71.0792 13.6711C71.1561 13.5672 71.278 13.5059 71.4072 13.5059H73.9226C74.2588 13.5059 74.451 13.8887 74.2506 14.1586L70.235 19.5648L74.3095 25.0502C74.5099 25.3202 74.3177 25.703 73.9815 25.703Z" fill="#2196F3"/>
<path d="M27.0006 19.4756V25.1304C27.0006 25.447 27.2566 25.703 27.5732 25.703H29.5037C29.8202 25.703 30.0762 25.447 30.0762 25.1304V19.1059C30.0762 18.3795 29.9544 17.6556 29.6869 16.9807C29.3302 16.0793 28.7985 15.4093 28.2374 14.9145C26.8435 13.6842 24.9212 13.2662 23.111 13.6916C21.1994 14.1414 20.2398 15.3128 20.2398 15.3128V6.84574C20.2398 6.52591 19.9805 6.2666 19.6607 6.2666H17.5928C17.273 6.2666 17.0137 6.52591 17.0137 6.84574V25.1239C17.0137 25.4437 17.273 25.703 17.5928 25.703H19.6673C19.9838 25.703 20.2398 25.447 20.2398 25.1304V19.7783C20.2398 19.5386 20.2644 19.2997 20.3126 19.0674C20.4983 18.175 21.1126 17.4257 21.9478 17.0609C22.4983 16.8204 23.2771 16.548 24.2922 16.6192C24.2922 16.6192 25.9593 16.6462 26.7118 18.1799C26.909 18.5815 26.9998 19.0273 26.9998 19.4756H27.0006Z" fill="#2196F3"/>
</svg>
