<svg width="16" height="17" viewBox="0 0 16 17" fill="none" xmlns="http://www.w3.org/2000/svg">
<g id="Icons/24/ic_add" clip-path="url(#clip0_854_31939)">
<mask id="mask0_854_31939" style="mask-type:alpha" maskUnits="userSpaceOnUse" x="0" y="0" width="16" height="17">
<rect id="Bounding box" y="0.5" width="16" height="16" fill="#D9D9D9"/>
</mask>
<g mask="url(#mask0_854_31939)">
<path id="add" d="M7.99977 13C7.85803 13 7.73931 12.9521 7.64358 12.8562C7.54786 12.7604 7.5 12.6417 7.5 12.5V8.99997H3.99998C3.85832 8.99997 3.73957 8.95203 3.64375 8.85617C3.54792 8.76029 3.5 8.64149 3.5 8.49977C3.5 8.35803 3.54792 8.23931 3.64375 8.14358C3.73957 8.04786 3.85832 8 3.99998 8H7.5V4.49998C7.5 4.35832 7.54793 4.23957 7.6438 4.14373C7.73968 4.04791 7.85848 4 8.0002 4C8.14193 4 8.26066 4.04791 8.35638 4.14373C8.45211 4.23957 8.49997 4.35832 8.49997 4.49998V8H12C12.1417 8 12.2604 8.04793 12.3562 8.1438C12.4521 8.23968 12.5 8.35848 12.5 8.5002C12.5 8.64193 12.4521 8.76066 12.3562 8.85638C12.2604 8.95211 12.1417 8.99997 12 8.99997H8.49997V12.5C8.49997 12.6417 8.45203 12.7604 8.35617 12.8562C8.26029 12.9521 8.14149 13 7.99977 13Z" fill="#2C74D6"/>
</g>
</g>
<defs>
<clipPath id="clip0_854_31939">
<rect width="16" height="16" fill="white" transform="translate(0 0.5)"/>
</clipPath>
</defs>
</svg>
