<svg width="24" height="24" viewBox="0 0 24 24" fill="none" xmlns="http://www.w3.org/2000/svg">
<g id="Icons/24/ic_eye_slash_24" clip-path="url(#clip0_1220_1426)">
<path id="Vector" d="M4.5 3.75L19.5 20.25" stroke="#818181" stroke-width="1.2" stroke-linecap="round" stroke-linejoin="round"/>
<path id="Vector_2" d="M14.5227 14.7751C13.7867 15.4442 12.8151 15.7935 11.8216 15.7462C10.828 15.6989 9.89397 15.2589 9.22488 14.5229C8.55579 13.7869 8.20646 12.8153 8.25376 11.8218C8.30105 10.8282 8.74109 9.89419 9.47706 9.2251" stroke="#818181" stroke-width="1.2" stroke-linecap="round" stroke-linejoin="round"/>
<path id="Vector_3" d="M12.7061 8.31641C13.5033 8.46908 14.2295 8.87632 14.7755 9.47696C15.3216 10.0776 15.658 10.8392 15.7342 11.6473" stroke="#818181" stroke-width="1.2" stroke-linecap="round" stroke-linejoin="round"/>
<path id="Vector_4" d="M19.5572 15.8531C21.601 14.0231 22.5 12 22.5 12C22.5 12 19.5 5.25001 12 5.25001C11.3505 5.24912 10.7021 5.3018 10.0613 5.40751" stroke="#818181" stroke-width="1.2" stroke-linecap="round" stroke-linejoin="round"/>
<path id="Vector_5" d="M6.9375 6.43115C3.11531 8.36615 1.5 11.9999 1.5 11.9999C1.5 11.9999 4.5 18.7499 12 18.7499C13.7574 18.7637 15.4927 18.3588 17.0625 17.5687" stroke="#818181" stroke-width="1.2" stroke-linecap="round" stroke-linejoin="round"/>
</g>
<defs>
<clipPath id="clip0_1220_1426">
<rect width="24" height="24" fill="white"/>
</clipPath>
</defs>
</svg>
