<svg width="16" height="16" viewBox="0 0 16 16" fill="none" xmlns="http://www.w3.org/2000/svg">
<g id="Icons/16/ic_info_16" clip-path="url(#clip0_1746_9767)">
<path id="Subtract" fill-rule="evenodd" clip-rule="evenodd" d="M1.40039 7.9999C1.40039 4.35482 4.35531 1.3999 8.00039 1.3999C11.6455 1.3999 14.6004 4.35482 14.6004 7.9999C14.6004 11.645 11.6455 14.5999 8.00039 14.5999C4.35531 14.5999 1.40039 11.645 1.40039 7.9999ZM6.90039 7.4999C6.90039 7.16853 7.16902 6.8999 7.50039 6.8999C7.79213 6.8999 8.07192 7.0158 8.27821 7.22208C8.4845 7.42837 8.60039 7.70816 8.60039 7.9999V10.4082C8.88416 10.4558 9.10039 10.7026 9.10039 10.9999C9.10039 11.3313 8.83176 11.5999 8.50039 11.5999C8.20865 11.5999 7.92886 11.484 7.72257 11.2777C7.51628 11.0714 7.40039 10.7916 7.40039 10.4999V8.09161C7.11662 8.044 6.90039 7.7972 6.90039 7.4999ZM8.50049 5.25C8.50049 5.66421 8.1647 6 7.75049 6C7.33627 6 7.00049 5.66421 7.00049 5.25C7.00049 4.83579 7.33627 4.5 7.75049 4.5C8.1647 4.5 8.50049 4.83579 8.50049 5.25Z" fill="#818181"/>
</g>
<defs>
<clipPath id="clip0_1746_9767">
<rect width="16" height="16" fill="white"/>
</clipPath>
</defs>
</svg>
