<svg width="20" height="20" viewBox="0 0 20 20" fill="none" xmlns="http://www.w3.org/2000/svg">
<g id="Stepper icons">
<path d="M0.5 10C0.5 4.7533 4.7533 0.5 10 0.5C15.2467 0.5 19.5 4.7533 19.5 10C19.5 15.2467 15.2467 19.5 10 19.5C4.7533 19.5 0.5 15.2467 0.5 10Z" fill="#F0F7FF"/>
<path d="M0.5 10C0.5 4.7533 4.7533 0.5 10 0.5C15.2467 0.5 19.5 4.7533 19.5 10C19.5 15.2467 15.2467 19.5 10 19.5C4.7533 19.5 0.5 15.2467 0.5 10Z" stroke="#B9DCFE"/>
<path id="Vector" d="M14 10C14 10.7911 13.7654 11.5645 13.3259 12.2223C12.8864 12.8801 12.2616 13.3928 11.5307 13.6955C10.7998 13.9983 9.99556 14.0775 9.21964 13.9231C8.44372 13.7688 7.73098 13.3878 7.17157 12.8284C6.61217 12.269 6.2312 11.5563 6.07686 10.7804C5.92252 10.0044 6.00173 9.20017 6.30448 8.46927C6.60723 7.73836 7.11992 7.11365 7.77772 6.67412C8.43552 6.2346 9.20888 6 10 6C11.0609 6 12.0783 6.42143 12.8284 7.17157C13.5786 7.92172 14 8.93913 14 10Z" fill="#004F9F"/>
</g>
</svg>
