<svg width="12" height="12" viewBox="0 0 12 12" fill="none" xmlns="http://www.w3.org/2000/svg">
<g id="Stepper icons">
<path d="M0.5 6C0.5 2.96243 2.96243 0.5 6 0.5C9.03757 0.5 11.5 2.96243 11.5 6C11.5 9.03757 9.03757 11.5 6 11.5C2.96243 11.5 0.5 9.03757 0.5 6Z" fill="#F0F7FF"/>
<path d="M0.5 6C0.5 2.96243 2.96243 0.5 6 0.5C9.03757 0.5 11.5 2.96243 11.5 6C11.5 9.03757 9.03757 11.5 6 11.5C2.96243 11.5 0.5 9.03757 0.5 6Z" stroke="#B9DCFE"/>
<path id="Vector" d="M10 6C10 6.79112 9.7654 7.56448 9.32588 8.22228C8.88635 8.88008 8.26164 9.39277 7.53073 9.69552C6.79983 9.99827 5.99556 10.0775 5.21964 9.92314C4.44372 9.7688 3.73098 9.38784 3.17157 8.82843C2.61217 8.26902 2.2312 7.55628 2.07686 6.78036C1.92252 6.00444 2.00173 5.20017 2.30448 4.46927C2.60723 3.73836 3.11992 3.11365 3.77772 2.67412C4.43552 2.2346 5.20888 2 6 2C7.06087 2 8.07828 2.42143 8.82843 3.17157C9.57857 3.92172 10 4.93913 10 6Z" fill="#004F9F"/>
</g>
</svg>
